<?xml version="1.0" standalone="no"?>
<!DOCTYPE svg PUBLIC "-//W3C//DTD SVG 20010904//EN"
 "http://www.w3.org/TR/2001/REC-SVG-20010904/DTD/svg10.dtd">
<svg version="1.0" xmlns="http://www.w3.org/2000/svg"
 width="200.000000pt" height="200.000000pt" viewBox="0 0 200.000000 200.000000"
 preserveAspectRatio="xMidYMid meet">
<metadata>
Created by potrace 1.14, written by Peter Selinger 2001-2017
</metadata>
<g transform="translate(0.000000,200.000000) scale(0.100000,-0.100000)"
fill="#000000" stroke="none">
<path d="M1180 1537 c-57 -18 -123 -92 -158 -179 -32 -75 -62 -196 -62 -244 0
-13 -4 -24 -10 -24 -5 0 -34 -9 -64 -21 -157 -58 -223 -248 -145 -415 21 -44
41 -61 150 -126 24 -16 25 -18 18 -89 -15 -156 -41 -247 -83 -294 -46 -51 -78
-53 -129 -6 -53 47 -71 54 -90 33 -24 -28 -25 -46 -6 -73 24 -35 99 -54 171
-44 140 18 219 141 264 410 1 6 2 18 3 27 1 11 19 22 54 34 162 53 241 206
191 373 -19 66 -70 123 -141 157 l-55 27 6 81 c7 92 30 213 50 260 37 84 96
100 157 40 42 -41 82 -48 103 -18 17 23 7 52 -28 78 -31 23 -139 30 -196 13z
m-236 -574 c-3 -32 -7 -72 -9 -90 -2 -17 -7 -87 -10 -155 -4 -67 -8 -124 -9
-125 -1 -2 -22 10 -47 25 -110 71 -124 249 -26 343 17 16 90 57 104 59 2 0 0
-26 -3 -57z m231 -18 c97 -127 43 -315 -101 -351 -18 -5 -23 -3 -20 7 6 19 16
108 23 214 5 80 9 144 12 183 2 20 56 -13 86 -53z"/>
</g>
</svg>
