<?xml version="1.0" encoding="UTF-8" standalone="no"?>
<!-- Created with Inkscape (http://www.inkscape.org/) -->

<svg
   width="180"
   height="180"
   viewBox="0 0 180 180"
   version="1.1"
  <g>
    <path
       style="fill:#000000;fill-opacity:1"
       id="path1"
       d="m 89.010226,77.623533 c -0.288088,-0.04163 -0.552892,-0.176849 -0.837336,-0.230853 -0.242167,-0.04598 -0.489413,-0.05925 -0.734242,-0.08784 -1.007223,-0.117616 -2.012303,-0.190913 -3.024274,-0.255024 -1.967306,-0.02407 -3.917258,0.358936 -5.706898,1.197592 -1.097139,0.514137 -3.159006,1.80298 -4.161474,2.410134 -2.742409,1.712409 -5.228639,3.820886 -6.974078,6.57293 -0.961833,1.516527 -1.106932,2.081802 -1.758417,3.703228 -0.575161,1.896139 -0.87869,3.915374 -0.132079,5.8156 0.394315,1.003586 0.658846,1.190551 1.335309,2.006186 4.757395,3.926324 1.75491,1.538774 14.147949,8.306664 0.347015,0.18951 0.751627,0.27212 1.145333,0.30856 0.467515,0.0433 0.940599,-0.0157 1.406681,-0.0723 1.541695,-0.18743 1.831402,-0.37426 3.356954,-0.88043 0.628548,-0.25834 1.288237,-0.45112 1.885646,-0.77503 0.704942,-0.38221 1.356897,-0.8575 2.002529,-1.3331 2.131101,-1.56984 3.945418,-3.41457 5.523376,-5.537015 0.484914,-0.652236 0.913953,-1.34421 1.37093,-2.016315 1.020102,-1.703864 1.793856,-3.528037 2.523735,-5.368454 0.11916,-0.300469 0.54925,-1.521883 0.82951,-1.902833 0.0526,-0.07144 0.16107,-0.07432 0.24161,-0.111477 -4.405227,-2.14549 -8.810451,-4.290981 -13.215676,-6.436472 0.139725,0.123872 0.327319,0.209043 0.419176,0.371615 0.206684,0.365795 0.318583,0.778072 0.454966,1.175469 0.173805,0.506437 0.310831,1.024815 0.47505,1.534442 0.306271,0.950457 1.050475,3.141994 1.35834,4.053408 1.127587,3.074563 2.059154,6.252594 3.582968,9.166129 0.216113,0.413208 0.465055,0.808403 0.697582,1.212593 0.242244,0.34047 0.462888,0.69739 0.726731,1.0214 0.245994,0.3021 0.466257,0.65058 0.799318,0.85269 3.253095,1.97399 9.042935,7.69719 14.530485,7.7513 1.23214,0.0122 2.13919,-0.17602 3.36485,-0.35779 0.64354,-0.1516 1.30297,-0.24701 1.93063,-0.45481 2.45905,-0.81414 4.90784,-2.2553 6.88917,-3.90715 0.79207,-0.66036 1.58433,-1.33675 2.24533,-2.12829 0.75016,-0.89831 1.30862,-1.9407 1.96293,-2.91106 1.41499,-2.605127 2.34614,-3.842184 2.87098,-6.882229 0.27973,-1.620334 0.33331,-3.278243 0.32039,-4.922496 -0.0304,-3.866882 -0.53738,-7.510158 -1.8171,-11.183403 -0.71633,-2.056108 -1.78102,-3.973762 -2.67153,-5.960643 -2.37696,-4.102635 -3.43141,-6.333905 -6.40795,-9.952181 -1.06755,-1.297721 -2.07393,-2.722563 -3.47173,-3.655248 -4.49908,-3.002014 -9.2044,-5.724348 -14.08349,-8.058497 -3.047535,-1.457933 -7.951892,-1.429113 -11.168113,-1.623782 -1.912453,0.142135 -3.838082,0.161019 -5.737357,0.426405 -5.330152,0.744782 -10.704348,2.577655 -15.423685,5.16217 -3.847256,2.106925 -4.740575,3.087879 -8.10032,5.827228 -1.128691,1.167262 -2.346014,2.254901 -3.386072,3.501786 -3.309995,3.968222 -5.814632,8.725183 -6.925922,13.791241 -0.981742,4.475485 -0.936625,8.361263 -1.123035,12.913459 -0.0025,7.542055 0.681024,14.97056 3.519368,22.02808 1.502312,3.73548 2.016892,4.17679 4.16663,7.44638 1.105845,1.016 2.041881,2.25562 3.317534,3.04798 4.646314,2.88604 9.420612,5.59177 14.36325,7.93437 2.70108,1.2802 9.06057,2.06826 11.82558,2.22673 6.314989,0.36195 8.333669,-0.11965 14.689692,-0.78791 6.33602,-1.28767 8.66986,-1.53001 14.74914,-3.67237 2.23115,-0.78627 4.41509,-1.71008 6.55996,-2.70795 1.99927,-0.93012 3.90638,-2.0467 5.85957,-3.07005 0,0 -8.40246,-5.47942 -8.40246,-5.47942 v 0 c -1.83031,1.06593 -3.6055,2.2327 -5.49093,3.19779 -6.56716,3.36149 -13.36834,5.42807 -20.672677,6.45463 -2.582949,0.17749 -5.159883,0.51262 -7.748847,0.53247 -4.693386,0.036 -9.660571,-0.4954 -14.221452,-1.65422 -1.974862,-0.50177 -4.90235,-3.77989 -5.79419,-1.94782 -0.892101,1.8326 3.178189,2.69591 5.101227,3.37134 1.341998,0.47135 -2.185699,-1.82078 -3.278549,-2.73117 -2.452014,-3.23496 -3.026841,-3.67779 -4.856,-7.43596 -2.421441,-4.97507 -3.829707,-10.36494 -4.424126,-15.85717 -0.226157,-2.089616 -0.233191,-4.197165 -0.349787,-6.295748 0.135165,-2.123258 0.110723,-4.262738 0.405496,-6.369776 0.974957,-6.969015 3.884866,-13.637807 8.418331,-19.022482 1.016485,-1.207342 2.187581,-2.275555 3.281372,-3.413333 3.255227,-2.705039 4.051141,-3.607176 7.770892,-5.719341 4.561152,-2.589931 9.618831,-4.391184 14.8313,-5.065213 1.858955,-0.240383 3.742592,-0.216783 5.613888,-0.325175 1.901382,0.186788 3.828312,0.197854 5.704132,0.560364 1.84893,0.35731 4.47547,3.218097 5.42114,1.589633 0.91953,-1.583432 -3.31095,-4.287345 -4.60616,-2.99304 -1.26751,1.266634 2.70659,2.360313 3.91823,3.680496 3.5268,3.842746 4.1804,5.422185 6.91035,9.902535 0.78506,1.866331 1.74256,3.669176 2.35519,5.598994 1.54062,4.853049 1.78323,9.930307 0.44908,14.849984 -0.7425,2.737955 -1.62409,3.982011 -2.97431,6.392296 -0.69464,0.847528 -1.31979,1.757124 -2.08391,2.542583 -1.93937,1.993531 -4.45431,3.518533 -7.08427,4.402763 -1.66757,0.56066 -2.61389,0.61676 -4.2931,0.84398 -1.40798,0.0199 -2.06776,0.12515 -3.42328,-0.20713 -0.424621,-0.10409 -1.599492,-0.69116 -1.228088,-0.46051 3.644538,2.26337 7.377918,4.38045 11.066878,6.57068 -0.32323,-0.22081 -0.67241,-0.40774 -0.9697,-0.66242 -0.32845,-0.28137 -0.59828,-0.62472 -0.89742,-0.93709 -0.29701,-0.38804 -0.61522,-0.76074 -0.89102,-1.16414 -1.88448,-2.75637 -3.00011,-5.956357 -4.06271,-9.092422 -0.49024,-1.687404 -0.97944,-3.385535 -1.1737,-5.14006 -0.0387,-0.349286 -0.0518,-0.702341 -0.0392,-1.053535 0.009,-0.26194 0.3333,-0.650534 0.105,-0.779286 -4.373641,-2.466482 -8.976168,-4.503046 -13.46425,-6.754569 -0.03892,0.461896 -0.03607,0.927011 -0.08397,1.388062 -0.240347,2.31325 -0.971721,4.542456 -2.032175,6.606483 -1.028875,1.69229 -1.343638,2.392753 -2.712674,3.878877 -2.184952,2.371823 -4.739413,3.905538 -7.853645,4.709176 -1.309323,0.207787 -2.099132,0.432651 -3.405134,0.291848 -0.456384,-0.0492 -0.903799,-0.172774 -1.341474,-0.311149 -0.355763,-0.112478 -1.349514,-0.631039 -1.029866,-0.43857 8.876066,5.344515 15.136231,8.639415 10.097773,5.972515 -0.728096,-0.55014 -1.072149,-0.72202 -1.609142,-1.47706 -1.082654,-1.52228 -1.08711,-3.390871 -0.793659,-5.160467 0.485073,-1.636102 0.485242,-1.971584 1.365072,-3.502073 1.52444,-2.651807 3.864836,-4.628794 6.45793,-6.187546 0.730875,-0.37407 1.437786,-0.799218 2.192625,-1.122211 2.557386,-1.094296 5.322639,-1.47586 8.079342,-1.190522 1.665785,0.223131 3.387121,0.472279 4.779607,1.492681 z" />
  </g>
</svg>
