<?xml version="1.0" encoding="UTF-8" standalone="no"?>
<!-- Created with Inkscape (http://www.inkscape.org/) -->
<svg
   width="512"
   height="512"
   viewBox="0 0 512 512"
   version="1.1"/>
  <g>
    <path
       d="m 331.57904,90.852028 c -1.469,-2.319002 -3.10886,-4.55938 -5.37792,-6.164899 -1.67484,-1.185073 -2.46118,-1.41842 -4.30887,-2.224179 -0.74414,-0.236494 -1.4786,-0.505968 -2.23243,-0.709482 -0.91911,-0.248135 -3.60025,-0.822062 -4.56449,-0.829686 -19.45336,-0.153805 -28.27215,-2.306684 -42.82237,0.942731 -2.9872,1.210776 -6.17484,2.091647 -8.98588,3.711109 -3.80094,2.189756 -7.06021,5.165889 -10.23857,8.140917 -4.26153,4.660978 -7.95872,9.900221 -10.67608,15.616351 -1.49247,3.1395 -2.07438,5.05709 -3.22382,8.31601 -2.60827,7.90323 -3.52028,16.12343 -3.87404,24.3914 -0.40663,8.40964 -0.30658,16.82507 -0.24292,25.24011 -0.17374,6.39624 0.31574,12.77258 0.52843,19.15869 0.11505,3.45475 0.13276,6.91209 0.21771,10.36771 0.0362,10.64071 0.49825,21.2673 0.35901,31.90771 0.34206,10.12096 0.22102,20.25036 0.47385,30.37164 0.24601,8.41709 0.52242,16.82993 0.59408,25.25084 0.42289,8.35708 0.089,16.72726 -0.0651,25.08745 -0.17677,7.17454 -0.0102,14.34854 0.12907,21.52197 0.1112,7.78831 -0.0546,15.57619 -0.16563,23.36341 0.007,5.77052 -0.34355,11.52518 -0.56772,17.28738 -0.18688,5.52919 -1.22365,10.95471 -2.75126,16.25586 -1.64281,5.93338 -4.62819,11.23755 -8.09574,16.27169 -4.42111,6.2702 -9.53985,11.81904 -15.20442,16.96888 -3.58014,3.05618 -7.44404,5.84912 -11.82076,7.65777 -2.01696,0.83349 -3.1635,1.04372 -5.24729,1.56657 -2.6719,0.57391 -5.39293,0.78189 -8.11933,0.80819 -0.55155,0.005 -2.2063,4e-5 -1.65473,-0.001 11.61917,-0.0226 23.23834,-0.0424 34.85751,-0.0636 -1.19477,0.10072 -2.23327,-0.0306 -3.34295,-0.44358 0,0 -36.71562,3.56795 -36.71562,3.56795 v 0 c 1.1099,1.07661 2.09149,2.21169 3.70549,2.46661 12.58098,0.0219 25.16196,0.0863 37.74295,0.0657 3.17615,-0.005 6.31904,-0.95493 9.32177,-1.86518 2.23798,-0.88169 2.91823,-1.06992 5.08215,-2.26793 4.13988,-2.29194 7.72276,-5.42786 11.21537,-8.58286 5.81904,-5.3823 11.16334,-11.23733 15.66453,-17.78315 3.54168,-5.44861 7.03689,-11.002 8.61268,-17.38822 1.50235,-5.57689 2.40766,-11.29881 2.77393,-17.06516 0.31839,-5.81687 0.34745,-11.63357 0.12034,-17.45585 -0.11069,-7.787 -0.27601,-15.5747 -0.16214,-23.36277 0.1422,-7.17394 0.31504,-14.34852 0.1403,-21.52372 -0.15916,-8.37665 -0.50383,-16.7569 -0.24355,-25.13467 -0.15948,-8.44624 -0.29334,-16.89515 -0.84663,-25.32674 -0.46589,-10.08045 -0.8273,-20.16678 -0.97977,-30.25716 -0.19927,-10.66037 0.19873,-21.31837 -0.23941,-31.97612 -0.0713,-3.45905 -0.22368,-6.91621 -0.28354,-10.37547 -0.11,-6.35726 0.0932,-12.7189 0.032,-19.07657 0.0455,-8.34597 0.0591,-16.69691 0.34697,-25.03781 0.55806,-7.8998 1.36362,-15.80787 3.79443,-23.39192 0.46817,-1.30841 0.88987,-2.6344 1.40452,-3.92525 2.75237,-6.90349 6.80725,-13.20503 12.30916,-18.238502 1.10515,-0.915347 2.16097,-1.893753 3.31544,-2.74604 4.96797,-3.667578 10.80314,-5.961231 16.86065,-7.027729 12.31692,-1.561796 31.31403,-0.246041 -28.91465,-0.546963 -0.74886,-0.0037 1.49845,-0.0589 2.24651,-0.02394 1.54316,0.07213 2.90017,0.345504 4.41811,0.5996 3.50758,0.89809 7.14911,1.943303 8.58908,5.633801 z" />
    <path
       style="fill:#000000"
       id="path2"
       d="m 230.1925,200.23445 c -3.47744,1.27721 -7.1747,1.82349 -10.7759,2.63565 -3.42925,0.77338 -5.54224,1.35226 -8.97723,2.24334 -1.83603,0.52999 -7.27508,2.05722 -9.092,2.75001 -1.67702,0.63946 -8.66609,3.8827 -10.135,4.5978 -1.78914,0.87099 -3.60391,1.69993 -5.32372,2.70088 -1.86995,1.08835 -3.61941,2.37164 -5.42912,3.55746 -5.21668,3.99222 -10.60948,7.96354 -15.09501,12.80789 -4.29937,4.6433 -7.58645,10.02299 -10.81537,15.42077 -2.30858,4.92247 -4.46374,10.05045 -5.55276,15.40892 -0.9668,4.75708 -0.91694,9.41322 -0.70106,14.22137 0.50386,5.55184 1.9961,10.99276 4.48384,15.99003 1.50144,3.01602 2.30942,4.00179 4.20008,6.78337 2.2374,2.9678 4.60377,5.94503 7.5154,8.29616 3.42545,2.76605 7.30513,4.71233 11.22985,6.64 9.63634,3.99659 19.97112,5.69634 30.24781,7.08207 8.3966,1.08944 16.86485,1.29212 25.31946,1.40192 15.61059,0.0677 31.22367,0.0786 46.8331,0.0251 1.32786,-0.005 2.65624,-0.0533 3.98099,-0.14431 2.77682,-0.19081 5.53917,-0.55333 8.30902,-0.8274 7.99144,-0.89667 15.68134,-3.29292 23.14981,-6.18386 1.0014,-0.45774 2.04739,-0.82841 3.00422,-1.37322 1.66247,-0.94659 4.41336,-3.118 5.87886,-4.30499 2.69585,-2.1835 5.11322,-4.52828 7.49468,-7.04375 4.36529,-4.85501 7.38424,-10.608 10.34075,-16.37073 2.69312,-6.12173 4.90881,-12.56297 6.1072,-19.16168 0.2421,-1.33304 0.38057,-2.68283 0.57086,-4.02424 0.7463,-5.30665 1.02378,-10.65567 0.33679,-15.98704 -0.43216,-3.35378 -0.852,-4.57781 -1.68526,-7.80796 -0.38157,-1.13171 -0.67366,-2.29765 -1.14473,-3.39513 -2.00695,-4.67567 -5.32434,-9.01523 -8.98056,-12.51905 -0.9444,-0.90504 -1.96939,-1.72203 -2.95409,-2.58305 -4.65567,-3.5965 -9.82583,-6.54472 -15.30399,-8.70264 -5.00744,-1.9725 -8.41,-2.86168 -13.6565,-4.43661 -17.10566,-4.68705 -34.8564,-6.24192 -52.5297,-6.73203 -6.0249,-0.16708 -12.0542,-0.0743 -18.08131,-0.11143 0,0 -26.88009,4.24223 -26.88009,4.24223 v 0 c 5.79215,0.0279 11.58702,-0.0955 17.37647,0.0836 15.87835,0.49115 31.82646,2.23409 47.10452,6.73441 2.23684,0.71594 4.49227,1.37622 6.71053,2.14782 7.04422,2.45027 13.85479,5.6343 19.99646,9.88678 0.96452,0.74953 1.96713,1.45246 2.89356,2.24859 4.45127,3.82524 7.99642,8.59337 10.03873,14.11082 0.91997,2.97995 1.362,4.00352 1.80879,7.12954 0.71963,5.03507 0.18731,10.13787 -0.34769,15.15918 -1.24296,7.6531 -3.01333,15.24272 -7.01037,21.99183 -2.93828,5.45262 -6.08853,10.82273 -10.36935,15.35431 -4.64441,4.71576 -9.70588,8.95247 -16.05712,11.16364 -7.29176,2.65872 -14.77434,4.74857 -22.55655,5.30462 -3.39799,0.2831 -5.02585,0.46204 -8.41772,0.57523 -1.34316,0.0448 -5.37526,0.0502 -4.03136,0.0533 56.67386,0.13126 35.30631,-0.012 22.91668,0.009 -8.6348,-0.0351 -17.28207,-0.10703 -25.88611,-0.92117 -10.0395,-1.07332 -20.1459,-2.53459 -29.6589,-6.05963 -3.17372,-1.37167 -4.54426,-1.84537 -7.51568,-3.59386 -4.18113,-2.46032 -7.7863,-5.74573 -10.81454,-9.52089 -1.81216,-2.48952 -2.65006,-3.48356 -4.15315,-6.16858 -2.53791,-4.53358 -4.09442,-9.50032 -4.75603,-14.64785 -0.27266,-3.65997 -0.50069,-4.88426 -0.21158,-8.59421 0.51806,-6.64799 2.56747,-13.067 5.54763,-19.0039 2.53433,-4.33732 3.20799,-5.839 6.39969,-9.83719 5.30071,-6.64012 11.93158,-12.09427 18.98924,-16.75945 1.90743,-1.07304 3.78039,-2.20978 5.72229,-3.2191 7.9466,-4.1303 16.44897,-7.04682 25.11673,-9.22947 7.2941,-1.68372 14.65795,-3.07066 22.01858,-4.42485 z" />
    <path
       style="fill:#000000"
       id="path3"
       d="m 9.478145,431.99937 c 0.3794509,5.4877 -0.1141375,11.00891 -0.4698037,16.4886 -0.3606096,7.27804 -1.1115362,14.52981 -1.6686955,21.79434 -0.1051859,5.08218 -0.4994266,10.15143 -0.5705129,15.23388 0.2251564,2.36651 -0.7839501,6.7239 0.4110182,8.78468 0.4029652,0.69493 1.0594344,1.20782 1.5891516,1.81173 0.8634022,0.33635 1.6897623,0.79043 2.5902063,1.00905 2.237037,0.54312 6.316904,0.72265 8.467129,0.80788 5.664864,0.22453 11.343943,0.20635 17.011873,0.31309 4.379418,0.0907 8.756545,0.25778 13.133339,0.42916 0,0 34.992096,-5.44539 34.992096,-5.44539 v 0 c -4.741387,-0.0774 -9.482749,-0.15846 -14.223273,-0.27962 -8.496606,-0.20054 -16.998019,-0.22777 -25.484115,-0.73764 -0.09613,0.0221 -1.499761,0.58921 -1.78326,0.0261 -0.189674,-0.37677 -0.132792,-0.83406 -0.165209,-1.25463 -0.139665,-1.81195 -0.04094,-3.63729 -0.116311,-5.45125 -0.0344,-5.02417 -0.321676,-10.0504 -0.0192,-15.07249 0.148012,-7.23948 0.570379,-14.46428 1.286361,-21.67148 0.579743,-5.60817 1.215151,-11.22088 2.121892,-16.78598 z" />
    <path
       style="fill:#000000"
       id="path4"
       d="m 403.48081,22.831893 c 0.89337,0.117306 1.78988,0.212759 2.68011,0.351919 4.74282,0.741395 9.44005,1.751043 14.18015,2.513222 4.68548,0.753398 7.85399,1.152626 12.57124,1.792013 10.13966,1.507642 20.37788,2.011579 30.57868,2.888263 2.08032,0.468164 5.38842,0.03207 7.05448,1.821534 2.38102,2.557369 2.64919,7.400931 3.11553,10.599602 0.92771,8.577275 0.62795,17.215638 -0.0847,25.793583 -0.33942,3.102082 -0.51409,6.216401 -0.68191,9.331017 0.0483,2.719174 0.14723,5.437221 0.10914,8.158962 -0.17312,2.348369 -0.0498,4.677736 0.18588,7.014324 0.0272,0.266921 0.0544,0.533842 0.0816,0.800763 0,0 37.15183,-0.525922 37.15183,-0.525922 v 0 c -0.0486,-0.264909 -0.0972,-0.529817 -0.14577,-0.794726 -0.39699,-2.152958 -0.52096,-4.303424 -0.50434,-6.494131 -0.0375,-2.710489 0.0547,-5.416685 0.13939,-8.124045 -0.1095,-3.110112 -0.16939,-6.222828 -0.41809,-9.326487 -0.52804,-8.729677 -0.7029,-17.46838 -0.9523,-26.209485 -0.30359,-4.146296 -0.37979,-12.866456 -3.92683,-15.814759 -1.34335,-1.116593 -4.85921,-1.271448 -6.30059,-1.447439 -10.6166,-0.870059 -21.28646,-1.08905 -31.85536,-2.521657 -8.86456,-1.20335 -17.77813,-2.374744 -26.36372,-4.987713 z" />
    <path
       d="M 48.127834,79.894361 C 47.274747,73.780949 47.338992,67.56993 47.312626,61.408285 c -0.09596,-7.934551 -0.08667,-15.871081 -0.07504,-23.80643 0.004,-5.978588 0.217555,-11.954283 0.590337,-17.920512 0.179641,-0.959974 0.02896,-1.961187 0.197001,-2.92325 0.04157,-0.238015 0.0132,-0.661459 0.254198,-0.678823 0.325455,-0.02345 0.463672,0.491319 0.769503,0.605067 1.281591,0.476663 3.166565,0.213401 4.374844,0.167553 5.357434,-0.209553 6.515428,-0.275093 12.531532,-0.395755 7.440192,-0.149225 14.373591,-0.202433 21.840085,-0.22564 4.030469,-0.01253 16.121854,-0.02939 12.091466,-6.32e-4 -6.428358,0.04586 -12.856997,0.03464 -19.285496,0.05196 0,0 30.703064,-4.860443 30.703064,-4.860443 v 0 C 93.413128,11.4363 75.522126,11.47864 57.63114,11.45854 46.562985,11.4461 35.483512,11.2503 24.415874,11.4113 c -2.122916,0.03088 -4.244071,0.13698 -6.366106,0.205471 -1.962758,0.298297 -4.269628,0.227351 -5.82033,1.79902 -1.655759,1.678146 -0.93258,4.243127 -0.869996,6.265551 0.372782,5.966229 0.586379,11.941924 0.590337,17.920512 0.01163,7.935349 0.02092,15.871879 -0.07504,23.80643 -0.02637,6.161645 0.03788,12.372664 -0.815208,18.486076 z" />
    <path
       style="fill:#000000"
       d="m 414.12454,491.50663 c 9.63794,0.85224 19.33846,0.76886 29.00651,0.84478 18.58593,0.22402 37.15185,0.47708 55.74799,0.0238 3.28118,-0.08 3.7609,-1.11637 6.11849,-3.03915 0.66067,-1.00609 1.46185,-1.93284 1.98199,-3.01827 3.89069,-8.11892 1.95637,-19.49641 1.20133,-28.0483 -0.82528,-8.52758 -1.6201,-17.05738 -2.36543,-25.59229 0,0 -34.63503,0.51293 -34.63503,0.51293 v 0 c 1.76793,8.33969 3.18054,16.76498 3.72757,25.2842 0.22092,6.42749 0.48723,12.36079 -0.92664,18.69945 -0.49248,2.2079 -1.31756,4.83662 -2.72189,6.70289 -0.53061,0.70516 -1.29131,1.2032 -1.93697,1.80481 -0.80858,0.3132 -1.58404,0.73125 -2.42576,0.93961 -0.94832,0.23475 -1.93738,0.2535 -2.90607,0.38025 10.20786,0.0496 20.41571,0.0991 30.62357,0.14873 1.7577,0.0122 -3.51542,0.0222 -5.27315,0.0265 -6.50013,0.016 -6.31061,10e-4 -13.00693,-0.0444 -8.52954,-0.13372 -17.08218,-0.1668 -25.58386,-0.93371 z" />
  </g>
</svg>
